<svg width="200" height="32" viewBox="0 0 200 32" fill="none" xmlns="http://www.w3.org/2000/svg">
<path opacity="0.1" fill-rule="evenodd" clip-rule="evenodd" d="M0 16C0 7.16344 7.16344 0 16 0C24.8366 0 32 7.16344 32 16C32 24.8366 24.8366 32 16 32C7.16344 32 0 24.8366 0 16Z" fill="white"/>
<path fill-rule="evenodd" clip-rule="evenodd" d="M16.0008 7C13.6833 7 13.3924 7.01013 12.4822 7.05156C11.5737 7.09316 10.9536 7.23698 10.4111 7.448C9.84981 7.66596 9.37372 7.95752 8.8994 8.43201C8.42473 8.90633 8.13317 9.38242 7.9145 9.9435C7.70294 10.4863 7.55894 11.1065 7.51805 12.0146C7.47734 12.9249 7.46667 13.2159 7.46667 15.5334C7.46667 17.851 7.47699 18.1409 7.51823 19.0511C7.56001 19.9596 7.70383 20.5797 7.91468 21.1223C8.13282 21.6835 8.42437 22.1596 8.89887 22.6339C9.37301 23.1086 9.8491 23.4009 10.41 23.6188C10.9529 23.8299 11.5732 23.9737 12.4815 24.0153C13.3917 24.0567 13.6824 24.0668 15.9997 24.0668C18.3175 24.0668 18.6074 24.0567 19.5176 24.0153C20.4261 23.9737 21.0469 23.8299 21.5898 23.6188C22.1509 23.4009 22.6263 23.1086 23.1004 22.6339C23.5751 22.1596 23.8667 21.6835 24.0853 21.1225C24.2951 20.5797 24.4391 19.9594 24.4818 19.0513C24.5227 18.1411 24.5333 17.851 24.5333 15.5334C24.5333 13.2159 24.5227 12.925 24.4818 12.0148C24.4391 11.1064 24.2951 10.4863 24.0853 9.94368C23.8667 9.38242 23.5751 8.90633 23.1004 8.43201C22.6258 7.95734 22.1511 7.66578 21.5893 7.448C21.0453 7.23698 20.4249 7.09316 19.5164 7.05156C18.6062 7.01013 18.3164 7 15.9981 7H16.0008ZM15.2353 8.53777C15.4625 8.53741 15.716 8.53777 16.0008 8.53777C18.2792 8.53777 18.5492 8.54595 19.449 8.58684C20.281 8.62488 20.7326 8.76391 21.0334 8.88071C21.4316 9.03537 21.7155 9.22027 22.014 9.51894C22.3127 9.81761 22.4976 10.1021 22.6526 10.5003C22.7694 10.8007 22.9086 11.2523 22.9464 12.0843C22.9873 12.9839 22.9962 13.2541 22.9962 15.5314C22.9962 17.8088 22.9873 18.079 22.9464 18.9786C22.9084 19.8106 22.7694 20.2622 22.6526 20.5626C22.4979 20.9608 22.3127 21.2444 22.014 21.5429C21.7153 21.8416 21.4318 22.0264 21.0334 22.1811C20.7329 22.2984 20.281 22.4371 19.449 22.4752C18.5494 22.5161 18.2792 22.5249 16.0008 22.5249C13.7222 22.5249 13.4521 22.5161 12.5526 22.4752C11.7205 22.4368 11.269 22.2977 10.968 22.1809C10.5698 22.0263 10.2853 21.8414 9.98666 21.5427C9.68799 21.244 9.5031 20.9603 9.34808 20.5619C9.23128 20.2614 9.09208 19.8099 9.05421 18.9779C9.01332 18.0783 9.00514 17.8081 9.00514 15.5293C9.00514 13.2505 9.01332 12.9817 9.05421 12.0822C9.09226 11.2502 9.23128 10.7986 9.34808 10.4978C9.50275 10.0996 9.68799 9.81512 9.98666 9.51645C10.2853 9.21778 10.5698 9.03289 10.968 8.87786C11.2688 8.76053 11.7205 8.62186 12.5526 8.58364C13.3398 8.54808 13.6448 8.53741 15.2353 8.53564V8.53777ZM20.5558 9.95468C19.9905 9.95468 19.5318 10.4128 19.5318 10.9783C19.5318 11.5437 19.9905 12.0023 20.5558 12.0023C21.1212 12.0023 21.5799 11.5437 21.5799 10.9783C21.5799 10.413 21.1212 9.95468 20.5558 9.95468ZM16.0008 11.1511C13.5807 11.1511 11.6186 13.1133 11.6186 15.5334C11.6186 17.9535 13.5807 19.9148 16.0008 19.9148C18.4209 19.9148 20.3824 17.9535 20.3824 15.5334C20.3824 13.1133 18.4209 11.1511 16.0008 11.1511ZM16.0008 12.6889C17.5717 12.6889 18.8453 13.9624 18.8453 15.5334C18.8453 17.1043 17.5717 18.3779 16.0008 18.3779C14.4298 18.3779 13.1563 17.1043 13.1563 15.5334C13.1563 13.9624 14.4298 12.6889 16.0008 12.6889Z" fill="white"/>
<path opacity="0.1" fill-rule="evenodd" clip-rule="evenodd" d="M56 16C56 7.16344 63.1634 0 72 0C80.8366 0 88 7.16344 88 16C88 24.8366 80.8366 32 72 32C63.1634 32 56 24.8366 56 16Z" fill="white"/>
<path fill-rule="evenodd" clip-rule="evenodd" d="M80.5333 15.5215C80.5333 16.0986 80.4746 16.6749 80.3592 17.2366C80.2467 17.785 80.08 18.3234 79.8617 18.8381C79.6483 19.3437 79.3837 19.8309 79.0745 20.2853C78.77 20.7368 78.4191 21.1603 78.0337 21.5465C77.6474 21.9309 77.2224 22.2808 76.7711 22.5867C76.3152 22.8937 75.8273 23.1579 75.3215 23.3723C74.806 23.5894 74.2664 23.7559 73.7184 23.8682C73.1559 23.9839 72.5776 24.043 71.9996 24.043C71.4213 24.043 70.8429 23.9839 70.2812 23.8682C69.7324 23.7559 69.1928 23.5894 68.6778 23.3723C68.1719 23.1579 67.6836 22.8937 67.2277 22.5867C66.7764 22.2808 66.3514 21.9309 65.966 21.5465C65.5801 21.1603 65.2293 20.7368 64.9243 20.2853C64.6167 19.8309 64.3517 19.3437 64.1376 18.8381C63.9192 18.3234 63.7521 17.785 63.6392 17.2366C63.525 16.6749 63.4667 16.0986 63.4667 15.5215C63.4667 14.944 63.525 14.3665 63.6392 13.8059C63.7521 13.2575 63.9192 12.7183 64.1376 12.2044C64.3518 11.6985 64.6168 11.2108 64.9243 10.7565C65.2293 10.3046 65.5802 9.88182 65.966 9.49527C66.3515 9.11079 66.7765 8.76173 67.2278 8.45632C67.6836 8.14798 68.172 7.8838 68.6778 7.66908C69.1929 7.45142 69.7324 7.28459 70.2812 7.1731C70.8429 7.05827 71.4213 7 71.9997 7C72.5776 7 73.1559 7.05827 73.7185 7.1731C74.2664 7.28463 74.806 7.45145 75.3215 7.66908C75.8273 7.88376 76.3153 8.14798 76.7711 8.45632C77.2224 8.76173 77.6475 9.11079 78.0337 9.49527C78.4191 9.88182 78.77 10.3046 79.0746 10.7565C79.3837 11.2108 79.6483 11.6985 79.8617 12.2044C80.08 12.7183 80.2467 13.2575 80.3592 13.8059C80.4746 14.3665 80.5333 14.944 80.5333 15.5215ZM68.8903 8.93938C66.8581 9.89765 65.3413 11.7675 64.8684 14.0211C65.0605 14.0227 68.0973 14.061 71.5962 13.1327C70.3349 10.895 68.9874 9.06882 68.8903 8.93938ZM72.2 14.2533C68.4477 15.375 64.8471 15.2943 64.718 15.2893C64.7159 15.3675 64.7121 15.4433 64.7121 15.5215C64.7121 17.3909 65.4184 19.0952 66.5793 20.3839C66.5768 20.3801 68.5711 16.8471 72.5038 15.5773C72.5988 15.5456 72.6955 15.5173 72.7913 15.4899C72.6084 15.0763 72.4087 14.6619 72.2 14.2533ZM76.8124 10.0599C75.5293 8.93022 73.8447 8.24496 71.9996 8.24496C71.4075 8.24496 70.8329 8.31654 70.2824 8.44884C70.3916 8.59533 71.7604 10.4086 73.0067 12.6937C75.7565 11.6644 76.7944 10.0865 76.8124 10.0599ZM73.288 16.6957C73.2718 16.7011 73.2556 16.7057 73.2397 16.7115C68.94 18.2083 67.5358 21.2248 67.5206 21.2577C68.7578 22.2184 70.3096 22.798 71.9996 22.798C73.0088 22.798 73.9701 22.5929 74.8448 22.2213C74.7368 21.5856 74.3135 19.357 73.288 16.6957ZM76.0719 21.5564C77.7082 20.4538 78.8703 18.7029 79.1945 16.6749C79.0445 16.6266 77.0057 15.9821 74.6535 16.3586C75.6093 18.9817 75.9977 21.1179 76.0719 21.5564ZM73.5676 13.7781C73.7368 14.1251 73.9006 14.4783 74.0518 14.8333C74.1056 14.9606 74.1581 15.0854 74.2093 15.2103C76.7128 14.8957 79.1792 15.4249 79.2846 15.4466C79.2679 13.7215 78.65 12.1383 77.6275 10.8988C77.6137 10.9183 76.4449 12.6047 73.5676 13.7781Z" fill="white"/>
<path opacity="0.1" fill-rule="evenodd" clip-rule="evenodd" d="M112 16C112 7.16344 119.163 0 128 0C136.837 0 144 7.16344 144 16C144 24.8366 136.837 32 128 32C119.163 32 112 24.8366 112 16Z" fill="white"/>
<path fill-rule="evenodd" clip-rule="evenodd" d="M127.521 13.405L127.554 13.9586L126.995 13.8908C124.958 13.631 123.178 12.7497 121.668 11.2695L120.929 10.5351L120.739 11.0775C120.336 12.2864 120.593 13.5632 121.433 14.4219C121.88 14.8964 121.779 14.9642 121.007 14.6818C120.739 14.5914 120.504 14.5236 120.481 14.5575C120.403 14.6366 120.672 15.6647 120.884 16.0715C121.175 16.6364 121.768 17.1901 122.417 17.5177L122.966 17.7776L122.317 17.7889C121.69 17.7889 121.668 17.8002 121.735 18.0375C121.959 18.7719 122.843 19.5515 123.828 19.8905L124.521 20.1277L123.917 20.4893C123.022 21.009 121.97 21.3028 120.918 21.3254C120.414 21.3367 120 21.3819 120 21.4158C120 21.5288 121.365 22.1615 122.16 22.4101C124.544 23.1445 127.375 22.8281 129.502 21.574C131.013 20.6814 132.523 18.9075 133.229 17.1901C133.609 16.2749 133.99 14.6027 133.99 13.8005C133.99 13.2807 134.023 13.2129 134.65 12.5915C135.019 12.2299 135.366 11.8345 135.433 11.7215C135.545 11.5068 135.534 11.5068 134.963 11.6989C134.012 12.0379 133.878 11.9927 134.348 11.4842C134.695 11.1227 135.109 10.4673 135.109 10.2753C135.109 10.2414 134.941 10.2979 134.751 10.3995C134.549 10.5125 134.102 10.682 133.766 10.7837L133.161 10.9758L132.613 10.6029C132.311 10.3995 131.886 10.1736 131.662 10.1058C131.091 9.9476 130.218 9.9702 129.703 10.151C128.304 10.6594 127.42 11.9701 127.521 13.405Z" fill="white"/>
<path opacity="0.1" fill-rule="evenodd" clip-rule="evenodd" d="M168 16C168 7.16344 175.163 0 184 0C192.837 0 200 7.16344 200 16C200 24.8366 192.837 32 184 32C175.163 32 168 24.8366 168 16Z" fill="white"/>
<path fill-rule="evenodd" clip-rule="evenodd" d="M190.668 10.3662C191.402 10.5677 191.981 11.1615 192.177 11.9155C192.533 13.282 192.533 16.1333 192.533 16.1333C192.533 16.1333 192.533 18.9845 192.177 20.3512C191.981 21.1052 191.402 21.6989 190.668 21.9005C189.337 22.2667 184 22.2667 184 22.2667C184 22.2667 178.663 22.2667 177.332 21.9005C176.598 21.6989 176.02 21.1052 175.823 20.3512C175.467 18.9845 175.467 16.1333 175.467 16.1333C175.467 16.1333 175.467 13.282 175.823 11.9155C176.02 11.1615 176.598 10.5677 177.332 10.3662C178.663 10 184 10 184 10C184 10 189.337 10 190.668 10.3662ZM182.4 13.7333V19.0666L186.667 16.4L182.4 13.7333Z" fill="white"/>
</svg>
